<mxfile host="app.diagrams.net" modified="2020-10-26T14:02:57.975Z" agent="5.0 (Windows NT 6.3; Win64; x64) AppleWebKit/537.36 (KHTML, like Gecko) Chrome/86.0.4240.111 Safari/537.36" etag="eGHO9kXdYX6i_XmSmFp8" version="13.8.3" type="github">
  <diagram name="Page-1" id="5f0bae14-7c28-e335-631c-24af17079c00">
    <mxGraphModel dx="920" dy="567" grid="1" gridSize="10" guides="1" tooltips="1" connect="1" arrows="1" fold="1" page="1" pageScale="1" pageWidth="1100" pageHeight="850" background="#ffffff" math="0" shadow="0">
      <root>
        <mxCell id="0" />
        <mxCell id="1" parent="0" />
        <mxCell id="39150e848f15840c-1" value="Purchase Order Service" style="verticalAlign=top;align=left;spacingTop=8;spacingLeft=2;spacingRight=12;shape=cube;size=10;direction=south;fontStyle=4;html=1;rounded=0;shadow=0;comic=0;labelBackgroundColor=none;strokeWidth=1;fontFamily=Verdana;fontSize=12" parent="1" vertex="1">
          <mxGeometry x="30" y="330" width="230" height="140" as="geometry" />
        </mxCell>
        <mxCell id="39150e848f15840c-2" value="DC Master Data Service" style="verticalAlign=top;align=left;spacingTop=8;spacingLeft=2;spacingRight=12;shape=cube;size=10;direction=south;fontStyle=4;html=1;rounded=0;shadow=0;comic=0;labelBackgroundColor=none;strokeWidth=1;fontFamily=Verdana;fontSize=12" parent="1" vertex="1">
          <mxGeometry x="375" y="40" width="300" height="185" as="geometry" />
        </mxCell>
        <mxCell id="GUGE5f8yUADNLL46IxdL-25" value="Appointment Info" style="edgeStyle=orthogonalEdgeStyle;rounded=0;orthogonalLoop=1;jettySize=auto;html=1;entryX=0.5;entryY=0.25;entryDx=0;entryDy=0;entryPerimeter=0;" edge="1" parent="1" source="39150e848f15840c-3" target="GUGE5f8yUADNLL46IxdL-21">
          <mxGeometry relative="1" as="geometry">
            <mxPoint x="380" y="510" as="targetPoint" />
          </mxGeometry>
        </mxCell>
        <mxCell id="39150e848f15840c-3" value="" style="verticalAlign=top;align=left;spacingTop=8;spacingLeft=2;spacingRight=12;shape=cube;size=10;direction=south;fontStyle=4;html=1;rounded=0;shadow=0;comic=0;labelBackgroundColor=none;strokeWidth=1;fontFamily=Verdana;fontSize=12" parent="1" vertex="1">
          <mxGeometry x="390" y="340" width="230" height="130" as="geometry" />
        </mxCell>
        <mxCell id="39150e848f15840c-5" value="Purchase &lt;br&gt;Order" style="shape=component;align=left;spacingLeft=36;rounded=0;shadow=0;comic=0;labelBackgroundColor=none;strokeWidth=1;fontFamily=Verdana;fontSize=12;html=1;" parent="1" vertex="1">
          <mxGeometry x="70" y="365" width="120" height="60" as="geometry" />
        </mxCell>
        <mxCell id="39150e848f15840c-7" value="DC&amp;nbsp;" style="shape=component;align=left;spacingLeft=36;rounded=0;shadow=0;comic=0;labelBackgroundColor=none;strokeWidth=1;fontFamily=Verdana;fontSize=12;html=1;" parent="1" vertex="1">
          <mxGeometry x="390" y="77.5" width="90" height="62.5" as="geometry" />
        </mxCell>
        <mxCell id="39150e848f15840c-10" value="Appointment" style="shape=component;align=left;spacingLeft=36;rounded=0;shadow=0;comic=0;labelBackgroundColor=none;strokeWidth=1;fontFamily=Verdana;fontSize=12;html=1;" parent="1" vertex="1">
          <mxGeometry x="410" y="375" width="120" height="60" as="geometry" />
        </mxCell>
        <mxCell id="GUGE5f8yUADNLL46IxdL-3" value="Vendor" style="shape=component;align=left;spacingLeft=36;rounded=0;shadow=0;comic=0;labelBackgroundColor=none;strokeWidth=1;fontFamily=Verdana;fontSize=12;html=1;" vertex="1" parent="1">
          <mxGeometry x="560" y="80" width="90" height="60" as="geometry" />
        </mxCell>
        <mxCell id="GUGE5f8yUADNLL46IxdL-4" value="Truck" style="shape=component;align=left;spacingLeft=36;rounded=0;shadow=0;comic=0;labelBackgroundColor=none;strokeWidth=1;fontFamily=Verdana;fontSize=12;html=1;" vertex="1" parent="1">
          <mxGeometry x="480" y="150" width="90" height="60" as="geometry" />
        </mxCell>
        <mxCell id="GUGE5f8yUADNLL46IxdL-6" value="Vendor&lt;br&gt;DC&lt;br&gt;DC_slot&lt;br&gt;Truck" style="shape=cylinder3;whiteSpace=wrap;html=1;boundedLbl=1;backgroundOutline=1;size=15;" vertex="1" parent="1">
          <mxGeometry x="760" y="70" width="60" height="110" as="geometry" />
        </mxCell>
        <mxCell id="GUGE5f8yUADNLL46IxdL-10" value="&lt;span&gt;Appointment&lt;/span&gt;" style="shape=cylinder;whiteSpace=wrap;html=1;boundedLbl=1;backgroundOutline=1;rounded=0;shadow=0;fontFamily=Verdana;align=left;strokeWidth=1;spacingLeft=36;comic=0;" vertex="1" parent="1">
          <mxGeometry x="700" y="375" width="140" height="80" as="geometry" />
        </mxCell>
        <mxCell id="GUGE5f8yUADNLL46IxdL-16" value="" style="endArrow=classic;startArrow=classic;html=1;entryX=0.998;entryY=0.681;entryDx=0;entryDy=0;entryPerimeter=0;exitX=-0.009;exitY=0.645;exitDx=0;exitDy=0;exitPerimeter=0;" edge="1" parent="1" source="39150e848f15840c-3" target="39150e848f15840c-2">
          <mxGeometry width="50" height="50" relative="1" as="geometry">
            <mxPoint x="360" y="310" as="sourcePoint" />
            <mxPoint x="410" y="260" as="targetPoint" />
          </mxGeometry>
        </mxCell>
        <mxCell id="GUGE5f8yUADNLL46IxdL-17" value="DC Master Data" style="edgeLabel;html=1;align=center;verticalAlign=middle;resizable=0;points=[];" vertex="1" connectable="0" parent="GUGE5f8yUADNLL46IxdL-16">
          <mxGeometry x="0.1922" y="-6" relative="1" as="geometry">
            <mxPoint x="-1" as="offset" />
          </mxGeometry>
        </mxCell>
        <mxCell id="GUGE5f8yUADNLL46IxdL-19" value="" style="endArrow=classic;startArrow=classic;html=1;entryX=0;entryY=0.3;entryDx=0;entryDy=0;" edge="1" parent="1" source="39150e848f15840c-10" target="GUGE5f8yUADNLL46IxdL-10">
          <mxGeometry width="50" height="50" relative="1" as="geometry">
            <mxPoint x="320" y="455" as="sourcePoint" />
            <mxPoint x="390.71067811865476" y="405" as="targetPoint" />
          </mxGeometry>
        </mxCell>
        <mxCell id="GUGE5f8yUADNLL46IxdL-20" value="" style="endArrow=classic;startArrow=classic;html=1;exitX=0;exitY=0;exitDx=87.5;exitDy=0;exitPerimeter=0;entryX=0;entryY=0.5;entryDx=0;entryDy=0;entryPerimeter=0;" edge="1" parent="1" source="39150e848f15840c-2" target="GUGE5f8yUADNLL46IxdL-6">
          <mxGeometry width="50" height="50" relative="1" as="geometry">
            <mxPoint x="700" y="160" as="sourcePoint" />
            <mxPoint x="750" y="110" as="targetPoint" />
          </mxGeometry>
        </mxCell>
        <mxCell id="GUGE5f8yUADNLL46IxdL-21" value="Kafka Broker" style="shape=switch;whiteSpace=wrap;html=1;" vertex="1" parent="1">
          <mxGeometry x="420" y="520" width="170" height="60" as="geometry" />
        </mxCell>
        <mxCell id="GUGE5f8yUADNLL46IxdL-32" value="PO" style="edgeStyle=orthogonalEdgeStyle;rounded=0;orthogonalLoop=1;jettySize=auto;html=1;exitX=0.5;exitY=1;exitDx=0;exitDy=0;entryX=0.5;entryY=0.25;entryDx=0;entryDy=0;entryPerimeter=0;" edge="1" parent="1" source="GUGE5f8yUADNLL46IxdL-22" target="GUGE5f8yUADNLL46IxdL-31">
          <mxGeometry relative="1" as="geometry" />
        </mxCell>
        <mxCell id="GUGE5f8yUADNLL46IxdL-22" value="Po Publisher Third Party App" style="rounded=1;whiteSpace=wrap;html=1;" vertex="1" parent="1">
          <mxGeometry x="60" y="95" width="120" height="60" as="geometry" />
        </mxCell>
        <mxCell id="GUGE5f8yUADNLL46IxdL-23" value="Third Party APP" style="rounded=1;whiteSpace=wrap;html=1;" vertex="1" parent="1">
          <mxGeometry x="445" y="610" width="120" height="60" as="geometry" />
        </mxCell>
        <mxCell id="GUGE5f8yUADNLL46IxdL-28" value="" style="endArrow=classic;html=1;exitX=0.5;exitY=0.75;exitDx=0;exitDy=0;exitPerimeter=0;" edge="1" parent="1" source="GUGE5f8yUADNLL46IxdL-21" target="GUGE5f8yUADNLL46IxdL-23">
          <mxGeometry width="50" height="50" relative="1" as="geometry">
            <mxPoint x="287" y="570" as="sourcePoint" />
            <mxPoint x="410" y="520" as="targetPoint" />
          </mxGeometry>
        </mxCell>
        <mxCell id="GUGE5f8yUADNLL46IxdL-29" value="" style="endArrow=classic;startArrow=classic;html=1;exitX=0.362;exitY=1.008;exitDx=0;exitDy=0;exitPerimeter=0;" edge="1" parent="1" source="39150e848f15840c-3">
          <mxGeometry width="50" height="50" relative="1" as="geometry">
            <mxPoint x="375.0000000000001" y="495.37" as="sourcePoint" />
            <mxPoint x="256" y="387" as="targetPoint" />
          </mxGeometry>
        </mxCell>
        <mxCell id="GUGE5f8yUADNLL46IxdL-30" value="PO Info" style="edgeLabel;html=1;align=center;verticalAlign=middle;resizable=0;points=[];" vertex="1" connectable="0" parent="GUGE5f8yUADNLL46IxdL-29">
          <mxGeometry x="0.1922" y="-6" relative="1" as="geometry">
            <mxPoint x="-1" as="offset" />
          </mxGeometry>
        </mxCell>
        <mxCell id="GUGE5f8yUADNLL46IxdL-33" value="PO" style="edgeStyle=orthogonalEdgeStyle;rounded=0;orthogonalLoop=1;jettySize=auto;html=1;exitX=0.5;exitY=0.75;exitDx=0;exitDy=0;exitPerimeter=0;" edge="1" parent="1" source="GUGE5f8yUADNLL46IxdL-31">
          <mxGeometry relative="1" as="geometry">
            <mxPoint x="120" y="330" as="targetPoint" />
          </mxGeometry>
        </mxCell>
        <mxCell id="GUGE5f8yUADNLL46IxdL-31" value="Kafka Broker" style="shape=switch;whiteSpace=wrap;html=1;" vertex="1" parent="1">
          <mxGeometry x="32.5" y="180" width="175" height="120" as="geometry" />
        </mxCell>
        <mxCell id="GUGE5f8yUADNLL46IxdL-36" value="" style="endArrow=classic;html=1;exitX=-0.021;exitY=0.256;exitDx=0;exitDy=0;exitPerimeter=0;" edge="1" parent="1" source="39150e848f15840c-1">
          <mxGeometry width="50" height="50" relative="1" as="geometry">
            <mxPoint x="210" y="320" as="sourcePoint" />
            <mxPoint x="270" y="250" as="targetPoint" />
          </mxGeometry>
        </mxCell>
        <mxCell id="GUGE5f8yUADNLL46IxdL-44" value="" style="edgeStyle=orthogonalEdgeStyle;rounded=0;orthogonalLoop=1;jettySize=auto;html=1;entryX=0.75;entryY=0.5;entryDx=0;entryDy=0;entryPerimeter=0;" edge="1" parent="1" source="GUGE5f8yUADNLL46IxdL-37" target="GUGE5f8yUADNLL46IxdL-31">
          <mxGeometry relative="1" as="geometry" />
        </mxCell>
        <mxCell id="GUGE5f8yUADNLL46IxdL-45" value="Retry Topic" style="edgeLabel;html=1;align=center;verticalAlign=middle;resizable=0;points=[];" vertex="1" connectable="0" parent="GUGE5f8yUADNLL46IxdL-44">
          <mxGeometry x="0.1132" y="1" relative="1" as="geometry">
            <mxPoint as="offset" />
          </mxGeometry>
        </mxCell>
        <mxCell id="GUGE5f8yUADNLL46IxdL-37" value="Failure" style="whiteSpace=wrap;html=1;aspect=fixed;" vertex="1" parent="1">
          <mxGeometry x="270" y="220" width="60" height="60" as="geometry" />
        </mxCell>
      </root>
    </mxGraphModel>
  </diagram>
</mxfile>
